# xmcd
#
# Track frame offsets: 
#        150
#        15042
#        27975
#        39085
#        50960
#        65057
#        76010
#        89425
#        100580
#        113282
#        126037
#        135805
#
# Disc length: 2059 seconds
#
# Revision: 3
# Processed by: cddbd v1.5.2PL0 Copyright (c) Steve Scherf et al.
# Submitted via: ExactAudioCopyFreeDBPlugin 1.0
#
DISCID=7f08090c
DTITLE=Bobby Womack - Bobby Womack:  The Collection [BCM Records] [box
DTITLE=set]
DYEAR=1990
DGENRE=Soul
TTITLE0=How I Miss You Baby
TTITLE1=More Than I Can Stand
TTITLE2=It's Gonna Rain
TTITLE3=Everyone's Gone to the Moon
TTITLE4=I Can't Take it Like a Man
TTITLE5=I Left My Heart in San Francisico
TTITLE6=Arkansas State Prison
TTITLE7=I'm Gonna Forget About You
TTITLE8=Don't Look Back
TTITLE9=Tried and Convicted
TTITLE10=Fly Me to the Moon (In Other Words)
TTITLE11=Thank You
EXTD=
EXTT0=
EXTT1=
EXTT2=
EXTT3=
EXTT4=
EXTT5=
EXTT6=
EXTT7=
EXTT8=
EXTT9=
EXTT10=
EXTT11=
PLAYORDER=
